<?xml version="1.0" encoding="utf-8"?>
<!-- Generator: Adobe Illustrator 16.2.1, SVG Export Plug-In . SVG Version: 6.00 Build 0)  -->
<!DOCTYPE svg PUBLIC "-//W3C//DTD SVG 1.1//EN" "http://www.w3.org/Graphics/SVG/1.1/DTD/svg11.dtd">
<svg version="1.1" id="Ebene_1" xmlns="http://www.w3.org/2000/svg" xmlns:xlink="http://www.w3.org/1999/xlink" x="0px" y="0px"
	 width="598.47px" height="457.478px" viewBox="0 0 598.47 457.478" enable-background="new 0 0 598.47 457.478"
	 xml:space="preserve">
<path fill="#020202" d="M533.771,227.897"/>
<g>
	<path fill="#F37032" d="M399.73,111.91c-9.274-16.061-20.657-30.826-33.819-43.884l-90.155,90.879
		c5.07,5.019,9.46,10.689,13.035,16.864L399.73,111.91z"/>
	<path fill="#F37032" d="M117.645,397.174c15.845,8.907,33.043,15.829,51.309,20.384l32.642-123.798
		c-7.027-1.606-13.647-4.137-19.774-7.413L117.645,397.174z"/>
	<path fill="#F37032" d="M151.662,258.132L40.694,322.008c9.475,15.927,21.035,30.545,34.364,43.432l90.184-90.908
		C160.007,269.687,155.436,264.172,151.662,258.132z"/>
	<path fill="#F37032" d="M11.527,218.11c0.188,18.938,2.951,37.397,8.002,54.991l123.582-33.645
		c-2.1-6.764-3.337-13.869-3.555-21.181L11.527,218.11z"/>
	<path fill="#F37032" d="M38.469,113.304c-9.041,15.957-16.055,33.303-20.668,51.731l123.8,32.642
		c1.662-7.19,4.289-13.954,7.695-20.196L38.469,113.304z"/>
	<path fill="#F37032" d="M178.464,147.153l-63.866-110.95C98.493,45.629,83.708,57.18,70.665,70.525l90.876,90.152
		C166.543,155.423,172.245,150.879,178.464,147.153z"/>
	<path fill="#F37032" d="M219.108,7.769c-18.998,0.016-37.527,2.639-55.203,7.552l33.63,123.533
		c6.846-1.96,14.035-3.002,21.408-3.047L219.108,7.769z"/>
	<path fill="#F37032" d="M323.577,35.625c-15.851-9.164-33.1-16.316-51.438-21.086l-32.642,123.8
		c7.099,1.821,13.784,4.552,19.919,8.084L323.577,35.625z"/>
</g>
<g>
	<g>
		<polygon fill="#FFD469" points="1216.814,412.942 1097.891,618.312 1158.293,389.224 		"/>
	</g>
	<g>
		<polygon fill="#FFD469" points="1304.033,499.3 1098.358,617.692 1265.213,449.497 		"/>
	</g>
	<g>
		<polygon fill="#FFD469" points="981.746,824.807 1100.671,619.438 1040.268,848.526 		"/>
	</g>
	<g>
		<polygon fill="#FFD469" points="894.527,738.449 1100.202,620.058 933.348,788.252 		"/>
	</g>
	<g>
		<polygon fill="#FFD469" points="862.172,620.054 1099.488,620.36 870.891,682.594 		"/>
	</g>
	<g>
		<polygon fill="#FFD469" points="893.349,501.341 1098.717,620.265 869.63,559.862 		"/>
	</g>
	<g>
		<polygon fill="#FFD469" points="979.705,414.122 1098.098,619.797 929.903,452.942 		"/>
	</g>
	<g>
		<polygon fill="#FFD469" points="1098.102,381.767 1097.795,619.082 1035.562,390.485 		"/>
	</g>
	<g>
		<polygon fill="#FFD469" points="1216.813,412.943 1097.891,618.312 1158.293,389.224 		"/>
	</g>
</g>
<circle fill="#FFFFFF" cx="1098.482" cy="617.768" r="80"/>
<g>
	<path fill="#FFFFFF" d="M1098.223,409.746c8.551-0.001,17.177,0.525,25.881,1.606c114,14.15,194.945,118.037,180.795,232.037
		c-13.069,105.294-102.717,182.4-206.156,182.4c-8.551,0-17.177-0.525-25.881-1.605c-114-14.15-194.944-118.039-180.795-232.037
		C905.137,486.852,994.781,409.756,1098.223,409.746 M1098.25,209.747L1098.25,209.747h-0.055
		c-98.852,0.009-194.328,36.01-268.834,101.372c-75.223,65.99-123.439,157.046-135.771,256.394
		c-6.773,54.571-2.625,108.95,12.33,161.622c14.416,50.77,38.211,97.67,70.723,139.398c32.514,41.729,72.172,76.268,117.877,102.658
		c47.418,27.38,99.133,44.697,153.705,51.471c16.723,2.076,33.721,3.129,50.518,3.129c98.865,0,194.351-36.001,268.863-101.371
		c75.222-65.991,123.439-157.048,135.771-256.395c6.773-54.571,2.625-108.949-12.331-161.623
		c-14.415-50.77-38.21-97.67-70.724-139.398c-32.513-41.729-72.172-76.268-117.877-102.658
		c-47.418-27.378-99.132-44.695-153.704-51.469C1132.019,210.799,1115.029,209.747,1098.25,209.747L1098.25,209.747L1098.25,209.747
		z"/>
</g>
<g>
	<path d="M1091.704,601.911c1.948-3.171,0.185-4.916-2.741-4.162c-7.283,1.873-21.643,17.014-26.242,27.346
		c-6.416,14.403-13.296,66.846-26.208,89.716c-3.274,5.793-11.046,12.911-14.362,15.12c-3.783,2.515-1.576,5.63,2.771,4.03
		c12.351-4.539,27.968-18.399,36.284-29.232c12.375-16.125,18.42-70.849,27.219-95.259
		C1089.203,607.304,1090.689,603.55,1091.704,601.911z"/>
	<path d="M1447.418,664.064c2.608-12.756,36.586-55.202,16.548-72.323c-10.452-8.943-29.268-2.035-44.85,6.594
		c4.861-21.631,8.367-44.602,4.673-54.9c-6.81-18.98-56.583-6.377-55.705,17.441c0.246,6.604,8.442,9.934,19.369,11.92
		c2.379,0.431,4.399-3.022,2.98-5.464c-3.53-6.074-5.669-19.116,4.882-22.756c14.492-5.001,7.722,24.964,2.979,46.438
		c-2.04,9.227-4.378,18.623-6.745,27.498c-22.953,19.65-41.498,31.09-47.239,25.727c-7.935-7.415,2.42-50.582,11.546-55.121
		c9.124-4.541,5.972,18.707,1.031,23.342c-2.736,2.596-0.851,5.475,6.674,4.633c7.559-0.814,17.984-6.951,18.864-14.486
		c0.876-7.537-3.841-30.877-26.463-25.059c-17.628,4.519-30.46,17.902-36.242,38.277c-1.725,6.077-3.047,13.678-2.935,20.839
		c-8.434,8.729-15.661,12.933-16.957,10.554c-2.614-4.787,12.086-38.778,12.89-41.277c1.674-5.215,0.372-8.008-4.286-6.332
		c-6.077,2.188-18.237,5.635-19.86,11.114c-1.987,6.703-8.938,29.299-18.124,34.762c-4.249,2.526-6.698-3.779-5.156-14.218
		c4.214-28.668,19.182-44.135,23.837-39.293c1.935,2.014,5.399,0.559,4.309-3.4c-2.438-8.848-9.854-13.342-19.719-11.599
		c-9.847,1.73-31.294,22.796-34.334,53.479c-9.789,8.321-28.948,23.3-40.917,24.143c-5.185,0.366-5.056-8.962-2.544-20.588
		c18.764-8.803,36.845-20.118,41.222-32.362c4.341-12.183-1.819-29.279-25.015-22.431c-21.205,6.276-33.897,24.414-40.249,53.187
		c-0.276,1.257-0.513,2.46-0.728,3.637c-3.433,1.387-6.693,2.607-9.688,3.604c8.207-20.204-0.216-41.99-32.019-39.134
		c13.225-22.732-4.652-53.661-45.635-29.51c-42.145,24.84-47.557,56.641-48.049,58.6c-0.529,2.111,0,4.225,3.168,3.169
		c2.533-0.845,12.246-6.614,15.578-10.293c1.164-1.287,2.333-3.54,2.904-5.034c1.848-4.865,6.459-24.236,28.506-36.41
		c24.617-13.594,32.734,12.34,17.948,28.508c-2.839,3.107-0.351,5.295,3.565,4.753c59.588-8.241,27.42,58.129-18.184,48.356
		c-5.01-1.073-6.108,3.258-1.082,4.967c31.59,10.738,55.715-1.295,67.754-18.014c3.785-1.232,8.668-2.887,14.172-4.91
		c-2.239,41.191,46.755,16.288,69.085-4.113c2.267,29.809,33.062,15.262,38.72,6.893c-2.742,8.954,4.857,14.145,15.641,12.417
		c8.88-1.423,17.349-7.446,24.209-14.657c1.808,7.853,6.374,13.854,15.577,14.465c17.707,1.178,40.256-15.865,54.879-29.033
		c-3.638,12.805-7.038,23.54-9.185,29.557c-1.246,3.492-2.188,8.106,2.178,6.297c11.952-4.936,23.294-16.014,25.231-21.678
		c1.573-4.585,6.01-19.062,10.19-35.945c7.416-4.596,15.161-7.799,21.114-6.127c9.276,2.623-0.513,25.707-11.765,50.377
		c-8.989,19.734,31.021,38.774,33.911,38.774c2.9,0,5.066-2.618,2.418-5.372C1460.045,684.205,1444.795,676.821,1447.418,664.064z
		 M1213.926,590.909c8.498-2.91-0.696,24.259-15.256,32.49C1203.272,607.884,1210.294,592.153,1213.926,590.909z"/>
	<path d="M1378.891,749.997c-7.821,42.455-39.808,42.245-40.679,30.925c-0.566-7.381,7.052-25.546,14.111-44.575
		c5.272-3.271,10.433-5.972,16.5-7.036c0.897-0.158,2.003-0.875,2.564-1.643c1.364-1.862,2.888-5.697,3.725-7.698
		c0.74-1.769,0.061-2.952-2.283-2.575c-5.739,0.918-10.906,3.204-15.94,6.131c6.263-18.602,10.093-35.888,3.17-42.423
		c-9.501-8.966-27.029-5.893-44.198,2.484c-19.047,9.294-19.353,27.922,4.562,32.868c3.055,0.634,6.806-2.026,4.646-5.196
		c-5.657-8.299-5.578-23.195,8.668-26.181c13.771-2.886,5.101,23.88-0.331,38.518c-2.458,6.622-4.917,12.943-7.206,18.913
		c-5.66,2.56-11.916,4.508-19.122,5.27c-1.539,0.163-2.992,0.29-4.374,0.39c0.665-2.708,1.058-5.127,1.142-7.097
		c1.07-24.887-21.655-17.146-30.208-5.694c-2.795-3.394-13.145-6.647-17.947-7.018c-15.402-1.188-56.617,82.234,2.653,72.099
		c20.756-3.549,35.914-27.524,42.244-45.318c1.906-0.067,3.896-0.172,6.021-0.336c6.061-0.47,11.345-1.518,16.058-2.929
		c-5.683,15.401-9.339,27.831-7.297,36c4.96,19.861,88.393,10.427,90.037-50.377
		C1405.546,732.181,1380.421,741.692,1378.891,749.997z M1287.339,740.58c0.055,1.968-0.224,4.346-0.772,6.971
		C1271.123,743.973,1287.078,731.113,1287.339,740.58z M1256.181,790.733c-14.44,3.067,3.639-42.653,14.836-50.511
		c-1.991,6.011,0.963,11.947,13.694,14.125C1279.72,769.446,1268.289,788.16,1256.181,790.733z"/>
	<path d="M1311.975,804c-29.013-0.231-86.985,28.441-101.243,24.082c-2.797-0.861-5.217-4.632-4.63-7.252
		c0.509-2.321-1.58-3.949-2.611-2.903c-2.33,2.316-7.842,20.015,0,29.301c9.435,11.18,85.646-22.045,104.129-19.756
		c3.044,0.36,4.442,5.173,3.768,8.734c-0.88,4.632,1.848,6.135,4.076,2.903C1335.179,810.392,1318.07,804.05,1311.975,804z"/>
	<path d="M1199.178,727.171c8.377-12.535,9.882-44.535-30.23-36.167c0.237-0.456,0.475-0.901,0.713-1.317
		c1.138-1.981,3.564-6.162,4.738-7.676c2.27-2.918,0.736-5.083-2.951-3.846c-6.855,2.294-27.628,14.701-32.196,23.459
		c-41.145,20.241-47.134,49.306-47.657,50.979c-0.617,1.979-0.23,4.024,2.849,3.193c2.455-0.672,12.03-5.638,15.407-8.965
		c1.18-1.164,2.414-3.248,3.04-4.64c1.651-3.695,3.208-16.838,22.488-28.645c-8.487,28.521-24.826,87.392-39.972,95.652
		c-2.773,1.514-4.759,0.284-4.58-2.289c0.381-5.463,6.807-17.005,10.041-21.316c2.113-2.816,0.529-4.228-2.643-3.172
		c-5.188,1.73-11.979,4.229-16.326,7.116c-1.606,1.067-2.84,2.402-3.404,3.807c-6.342,15.788-3.658,24.973,2.82,27.307
		c10.797,3.891,32.325-8.281,41.574-18.851c23.416-26.763,32.766-73.575,41.469-99.384c22.799-2.685,15.476,22.443,7.507,31.208
		c-3.214,3.535-1.704,6.756,2.54,6.456c56.059-3.974,9.877,63.563-29.74,50.782c-9.031-2.914-9.158,1.122-2.097,5.333
		C1196.697,828.473,1264.729,735.613,1199.178,727.171z"/>
</g>
<g>
	<g>
		<path d="M976.548,273.401c3.137-2.089,10.489-8.824,13.587-14.305c12.216-21.637,18.726-71.252,24.795-84.879
			c4.352-9.774,17.937-24.099,24.827-25.871c2.77-0.713,4.438,0.938,2.594,3.937c-0.959,1.55-2.366,5.103-3.103,7.152
			c-8.325,23.094-14.045,74.867-25.753,90.123c-7.867,10.249-22.643,23.361-34.327,27.656
			C975.056,278.728,972.968,275.781,976.548,273.401z"/>
		<path d="M1095.417,199.797c0,0,75.201-21.653,84.533-47.764c4.106-11.526-1.722-27.701-23.666-21.222
			c-20.062,5.938-32.069,23.098-38.078,50.319c-14.309,64.81,62.292,16.423,72.721-2.786c10.432-19.212-2.993-4.228-2.993-4.228
			s-28.85,26.904-44.575,28.011c-12.508,0.883,7.656-57.865,14.624-60.252c8.222-2.816-1.057,24.137-15.369,31.249
			c-15.536,7.722-32.455,15.148-42.258,17.063L1095.417,199.797z"/>
		<path d="M1182.06,179.372c2.845-29.074,23.168-49.041,32.492-50.679c9.332-1.649,16.35,2.602,18.655,10.974
			c1.032,3.745-2.246,5.122-4.076,3.217c-4.404-4.581-18.565,10.052-22.552,37.175c-1.458,9.875,0.858,15.841,4.879,13.451
			c8.69-5.168,15.267-26.545,17.146-32.888c1.536-5.184,13.04-8.444,18.79-10.515c4.406-1.585,5.639,1.057,4.054,5.991
			c-0.76,2.364-14.668,34.522-12.194,39.052c1.856,3.406,16.569-7.448,28.637-25.839c4.775-7.265,4.865-2.803,1.409,4.933
			c-5.289,11.85-19.937,30.316-35.996,32.891c-10.202,1.635-17.393-3.276-14.798-11.747
			C1212.631,204.078,1178.099,219.819,1182.06,179.372z"/>
		<path d="M1258.073,165.449c5.471-19.277,17.611-31.939,34.289-36.214c21.401-5.505,25.865,16.577,25.035,23.708
			c-0.832,7.129-10.696,12.935-17.847,13.706c-7.119,0.795-8.903-1.928-6.313-4.383c4.673-4.385,7.656-26.379-0.976-22.083
			c-8.634,4.294-18.431,45.134-10.924,52.148c6.224,5.815,28.354-9.244,54.438-32.945c26.066-23.713,1.294,6.136,1.294,6.136
			s-39.048,43.232-66.125,41.431C1252.099,205.702,1253.78,180.58,1258.073,165.449z"/>
		<path d="M1303.83,113.462c-0.831-22.534,46.259-34.458,52.701-16.501c6.909,19.261-12.798,85.367-16.425,95.935
			c-1.833,5.359-12.563,15.839-23.871,20.508c-4.13,1.712-3.239-2.653-2.061-5.958c3.951-11.074,12.392-39.026,18.236-65.472
			c4.486-20.316,10.893-48.666-2.819-43.934c-9.981,3.443-7.958,15.782-4.618,21.529c1.342,2.31-0.568,5.577-2.819,5.169
			C1311.816,122.859,1304.062,119.709,1303.83,113.462z"/>
		<path d="M1327.736,165.172c0,0,47.885-38.696,66.806-22.509c18.957,16.198-13.188,56.355-15.655,68.423
			c-2.482,12.069,11.946,19.055,14.077,21.268c2.505,2.604,0.456,5.082-2.288,5.082c-2.734,0-40.587-18.014-32.082-36.684
			c10.645-23.34,19.906-45.179,11.129-47.66c-12.047-3.384-31.856,14.332-39.771,20.932
			C1323.896,179.083,1327.736,165.172,1327.736,165.172z"/>
		<path d="M1117.794,224.426c-6.818,2.283-28.209,15.146-31.014,23.448c-6.427,19.023-24.427,91.523-40.927,100.523
			c-2.624,1.432-4.503,0.268-4.333-2.166c0.359-5.169,6.439-16.088,9.5-20.167c1.998-2.665,0.5-4-2.5-3
			c-4.908,1.637-11.334,4-15.446,6.731c-1.521,1.01-2.687,2.272-3.221,3.602c-6,14.938-3.462,23.626,2.667,25.834
			c10.215,3.681,30.583-7.834,39.333-17.834c26.628-30.432,34.028-88.273,44.251-106.07c1.076-1.875,3.371-5.83,4.481-7.262
			C1122.733,225.305,1121.282,223.256,1117.794,224.426z"/>
		<path display="none" d="M1085.833,240.191c1.334-5.122,1.832-5.466,5.121-7.922c3.287-2.48,17.372-10.093,20.865-11.346
			c4.433-1.542,7.022-1.302,4.433,6.384c-1.517,4.478-35.636,132.281-96.034,132.554c-37.889,0.167-34.589-30.448-9.613-36.228
			c5.109-1.184,5.359,2.818,3.469,5.56c-3.297,4.846-4.154,22.501,9.443,20.498C1042.159,346.969,1073.212,288.76,1085.833,240.191z
			"/>
		<path d="M1197.496,271.915c-14.572-1.125-53.565,77.801,2.51,68.211c25.774-4.407,42.442-42.12,43.049-56.185
			c1.877-43.691-73.785,18.905,2.613,12.992c31.219-2.418,40.773-20.947,58.861-24.118c0.849-0.149,1.895-0.828,2.426-1.555
			c1.291-1.762,2.731-5.39,3.523-7.283c0.7-1.673,0.058-2.793-2.16-2.437c-20.883,3.341-33.775,25.74-62.206,28.746
			c-43.339,4.582-18.987-18.201-18.675-6.81c0.356,12.911-13.981,44.155-29.479,47.449c-14.102,2.995,4.575-43.185,15.036-48.392
			C1221.167,278.469,1203.979,272.415,1197.496,271.915z"/>
		<path d="M1296.236,227.207c14.705,13.88-21.853,79.021-20.668,94.437c0.823,10.709,31.085,10.908,38.484-29.257
			c1.447-7.857,25.22-16.856,25.086-11.825c-1.556,57.524-80.489,66.45-85.183,47.66c-3.007-12.032,7.047-33.826,17.065-60.813
			c5.139-13.849,13.341-39.171,0.312-36.441c-13.479,2.824-13.553,16.917-8.2,24.769c2.043,2.999-1.506,5.516-4.396,4.917
			c-22.625-4.68-22.336-22.304-4.315-31.096C1270.665,221.631,1287.248,218.724,1296.236,227.207z"/>
		<path d="M1154.961,366.261c13.489,4.125,68.336-23.002,95.784-22.783c5.767,0.047,21.953,6.047,3.3,33.217
			c-2.108,3.057-4.688,1.635-3.856-2.747c0.639-3.369-0.685-7.923-3.563-8.264c-17.486-2.165-89.59,29.268-98.515,18.69
			c-7.42-8.785-2.205-25.529,0-27.721c0.975-0.99,2.951,0.551,2.47,2.747C1150.025,361.879,1152.314,365.446,1154.961,366.261z"/>
	</g>
	<path d="M1078.059,150.957c12.513-21.506-4.401-50.768-43.175-27.918c-39.871,23.5-44.992,53.587-45.458,55.44
		c-0.5,1.998,0,3.997,2.998,2.998c2.396-0.8,11.585-6.258,14.737-9.739c1.102-1.217,2.208-3.349,2.748-4.762
		c1.748-4.603,6.11-22.93,26.97-34.447c23.29-12.861,30.969,11.674,16.979,26.971c-2.685,2.939-0.332,5.009,3.373,4.497
		c56.376-7.797,25.941,54.994-17.203,45.749c-4.739-1.015-5.778,3.083-1.023,4.699
		C1108.43,238.045,1139.803,145.412,1078.059,150.957z"/>
	<path d="M1144.03,270.79c8.872-13.275,9.603-49.637-43.939-29.651c-50.498,18.849-57.3,51.971-57.846,53.713
		c-0.584,1.873-0.217,3.808,2.696,3.021c2.322-0.635,11.382-5.334,14.575-8.481c1.117-1.101,2.285-3.072,2.877-4.389
		c1.919-4.292,3.693-22.057,36.537-34.413c35.864-13.493,27.964,16.732,19.258,26.308c-3.041,3.346-1.611,6.392,2.404,6.108
		c53.036-3.76,9.344,60.136-28.138,48.044c-8.544-2.757-8.664,1.062-1.983,5.046C1141.683,366.63,1206.046,278.778,1144.03,270.79z"
		/>
</g>
<g id="nicht_umgewandelt">
	<g>
		<g>
			<polygon fill="#FFD469" points="1129.366,-286.09 1096.294,-51.089 1066.223,-286.091 			"/>
		</g>
		<g>
			<polygon fill="#FFD469" points="1242.637,-238.82 1096.495,-51.839 1187.953,-270.392 			"/>
		</g>
		<g>
			<polygon fill="#FFD469" points="1317.097,-141.248 1097.044,-52.388 1285.525,-195.932 			"/>
		</g>
		<g>
			<polygon fill="#FFD469" points="1332.795,-19.518 1097.794,-52.589 1332.795,-82.661 			"/>
		</g>
		<g>
			<polygon fill="#FFD469" points="1285.524,93.753 1098.544,-52.388 1317.097,39.069 			"/>
		</g>
		<g>
			<polygon fill="#FFD469" points="1187.952,168.213 1099.093,-51.839 1242.637,136.642 			"/>
		</g>
		<g>
			<polygon fill="#FFD469" points="1066.222,183.911 1099.294,-51.089 1129.366,183.912 			"/>
		</g>
		<g>
			<polygon fill="#FFD469" points="952.951,136.641 1099.093,-50.339 1007.636,168.214 			"/>
		</g>
		<g>
			<polygon fill="#FFD469" points="878.491,39.068 1098.544,-49.791 910.063,93.754 			"/>
		</g>
		<g>
			<polygon fill="#FFD469" points="862.793,-82.662 1097.794,-49.589 862.793,-19.517 			"/>
		</g>
		<g>
			<polygon fill="#FFD469" points="910.063,-195.932 1097.044,-49.791 878.491,-141.247 			"/>
		</g>
		<g>
			<polygon fill="#FFD469" points="1007.636,-270.392 1096.495,-50.339 952.951,-238.82 			"/>
		</g>
		<g>
			<polygon fill="#FFD469" points="1129.366,-286.09 1096.294,-51.089 1066.222,-286.09 			"/>
		</g>
	</g>
</g>
<path display="none" d="M568.06,260.911c2.591-12.662,36.32-54.8,16.429-71.796c-10.378-8.878-29.057-2.021-44.525,6.545
	c4.827-21.474,8.308-44.276,4.64-54.501c-6.76-18.843-56.172-6.33-55.299,17.313c0.244,6.556,8.38,9.861,19.227,11.833
	c2.362,0.428,4.367-3,2.96-5.424c-3.505-6.03-5.629-18.978,4.843-22.591c14.391-4.965,7.668,24.783,2.961,46.101
	c-2.025,9.16-4.347,18.489-6.697,27.3c-22.784,19.506-41.196,30.863-46.895,25.538c-7.876-7.36,2.402-50.214,11.462-54.72
	c9.058-4.507,5.928,18.571,1.023,23.172c-2.718,2.577-0.845,5.434,6.626,4.599c7.502-0.808,17.854-6.9,18.727-14.381
	c0.869-7.482-3.813-30.653-26.271-24.876c-17.5,4.485-30.239,17.772-35.979,38c-1.711,6.032-3.022,13.575-2.912,20.685
	c-8.372,8.666-15.548,12.839-16.835,10.479c-2.597-4.753,11.998-38.497,12.796-40.978c1.663-5.177,0.369-7.949-4.254-6.286
	c-6.034,2.172-18.104,5.593-19.717,11.033c-1.973,6.654-8.874,29.085-17.992,34.509c-4.218,2.508-6.648-3.751-5.119-14.114
	c4.182-28.46,19.042-43.815,23.665-39.008c1.918,1.999,5.358,0.554,4.275-3.375c-2.418-8.784-9.782-13.246-19.574-11.515
	c-9.702,1.705-30.745,22.327-34.006,52.421c-8.624,7.492-29.029,24.097-41.438,24.971c-5.006,0.354-4.884-8.654-2.457-19.881
	c18.118-8.5,35.578-19.426,39.805-31.25c4.191-11.763-1.757-28.272-24.155-21.66c-20.476,6.061-32.732,23.576-38.866,51.358
	c-0.268,1.213-0.495,2.376-0.702,3.513c-6.806,2.749-12.929,4.835-17.517,5.732l-5.04,9.807c0,0,9.155-2.637,21.532-7.185
	c-2.225,40.913,47.887,14.3,68.489-5.648c1.653,30.871,32.827,16.203,38.504,7.805c-2.723,8.889,4.822,14.041,15.528,12.325
	c8.815-1.413,17.223-7.393,24.033-14.552c1.794,7.797,6.326,13.756,15.463,14.363c17.579,1.169,39.963-15.75,54.479-28.823
	c-3.609,12.71-6.985,23.367-9.116,29.339c-1.236,3.469-2.172,8.05,2.163,6.252c11.864-4.899,23.125-15.896,25.047-21.52
	c1.562-4.552,5.967-18.924,10.116-35.684c7.362-4.563,15.051-7.743,20.96-6.083c9.211,2.604-0.508,25.519-11.677,50.01
	c-8.925,19.59,30.795,38.493,33.663,38.493c2.88,0,5.03-2.6,2.401-5.333C580.595,280.906,565.456,273.575,568.06,260.911z
	 M335.104,190.349c8.206-2.811-0.673,23.424-14.731,31.373C324.817,206.74,331.598,191.551,335.104,190.349z"/>
<g>
	<path d="M499.934,348.018c-7.821,42.455-39.808,42.245-40.679,30.925c-0.566-7.381,7.052-25.546,14.111-44.575
		c5.272-3.271,10.433-5.972,16.5-7.036c0.897-0.158,2.003-0.875,2.564-1.643c1.364-1.862,2.888-5.697,3.725-7.698
		c0.74-1.769,0.061-2.952-2.283-2.575c-5.739,0.918-10.906,3.204-15.94,6.131c6.263-18.602,10.093-35.887,3.17-42.422
		c-9.501-8.967-27.029-5.895-44.198,2.484c-19.047,9.293-19.353,27.921,4.562,32.867c3.055,0.634,6.806-2.026,4.646-5.196
		c-5.657-8.299-5.578-23.195,8.668-26.181c13.771-2.885,5.101,23.88-0.331,38.518c-2.458,6.622-4.917,12.943-7.206,18.913
		c-5.66,2.56-11.916,4.508-19.122,5.27c-1.539,0.163-2.992,0.29-4.374,0.39c0.665-2.708,1.058-5.127,1.142-7.097
		c1.07-24.887-21.655-17.146-30.208-5.694c-2.795-3.394-13.145-6.647-17.947-7.018c-15.402-1.188-56.617,82.234,2.653,72.099
		c20.756-3.549,35.914-27.524,42.244-45.318c1.906-0.067,3.896-0.172,6.021-0.336c6.061-0.47,11.345-1.518,16.058-2.929
		c-5.683,15.401-9.339,27.831-7.297,36c4.96,19.861,88.393,10.427,90.037-50.377C526.589,330.201,501.464,339.713,499.934,348.018z
		 M377.224,388.754c-14.44,3.067,3.639-42.653,14.836-50.511c-1.991,6.011,0.963,11.947,13.694,14.125
		C400.763,367.467,389.332,386.181,377.224,388.754z M407.609,345.571c-15.443-3.578,0.512-16.438,0.772-6.971
		C408.437,340.568,408.158,342.946,407.609,345.571z"/>
	<path d="M433.018,402.021c-29.013-0.231-86.985,28.441-101.243,24.082c-2.797-0.861-5.217-4.632-4.63-7.252
		c0.509-2.321-1.58-3.949-2.611-2.903c-2.331,2.316-7.842,20.015,0,29.301c9.435,11.18,85.646-22.045,104.129-19.756
		c3.044,0.36,4.442,5.173,3.768,8.734c-0.88,4.632,1.848,6.135,4.076,2.903C456.222,408.412,439.113,402.07,433.018,402.021z"/>
	<path d="M320.221,325.191c8.376-12.535,9.881-44.535-30.231-36.167c0.237-0.457,0.474-0.9,0.713-1.316
		c1.137-1.982,3.564-6.163,4.737-7.677c2.27-2.917,0.736-5.083-2.951-3.847c-6.855,2.295-27.627,14.702-32.196,23.46
		c-41.145,20.241-47.134,49.306-47.658,50.979c-0.617,1.979-0.23,4.024,2.849,3.193c2.455-0.672,12.031-5.638,15.407-8.965
		c1.181-1.164,2.415-3.248,3.041-4.64c1.651-3.695,3.208-16.838,22.488-28.645c-8.487,28.521-26.288,93.145-39.833,101.129
		c-10.942,6.45-2.192-17.8,2.808-25.8c0.844-1.351,0.671-3.806-2.5-2.75c-5.188,1.73-10.749,5.057-15.096,7.944
		c-1.607,1.067-2.973,2.355-3.404,3.807c-10.25,34.499,22.25,35.499,42,11.666c22.69-27.381,36.301-81.317,45.004-107.126
		c22.8-2.685,15.476,22.443,7.507,31.208c-3.214,3.535-1.704,6.756,2.541,6.456c56.058-3.974,9.876,63.563-29.741,50.782
		c-9.031-2.914-9.158,1.122-2.097,5.333C317.74,426.493,385.771,333.634,320.221,325.191z"/>
	<path d="M212.316,200.76c1.937-3.15,0.185-4.884-2.724-4.134c-7.236,1.86-21.503,16.904-26.074,27.17
		c-6.375,14.312-13.21,66.421-26.041,89.144c-3.253,5.757-10.976,12.83-14.271,15.023c-3.76,2.5-1.566,5.595,2.752,4.006
		c12.272-4.512,27.79-18.282,36.052-29.046c12.296-16.022,18.303-70.397,27.047-94.652
		C209.832,206.119,211.309,202.387,212.316,200.76z"/>
	<path d="M565.764,262.518c2.59-12.675,36.351-54.85,16.44-71.862c-10.387-8.886-29.082-2.022-44.564,6.553
		c4.831-21.494,8.315-44.317,4.645-54.551c-6.767-18.859-56.223-6.336-55.349,17.33c0.243,6.562,8.388,9.869,19.245,11.843
		c2.363,0.429,4.37-3.002,2.959-5.428c-3.507-6.036-5.631-18.996,4.851-22.611c14.401-4.969,7.673,24.804,2.961,46.142
		c-2.026,9.168-4.351,18.506-6.703,27.325c-22.805,19.522-41.231,30.89-46.936,25.561c-7.884-7.367,2.404-50.259,11.473-54.769
		c9.066-4.511,5.932,18.588,1.024,23.193c-2.72,2.579-0.846,5.439,6.632,4.603c7.508-0.81,17.869-6.906,18.743-14.394
		c0.872-7.489-3.817-30.68-26.294-24.899c-17.515,4.49-30.267,17.789-36.011,38.034c-1.713,6.038-3.026,13.589-2.916,20.706
		c-8.38,8.673-15.562,12.851-16.85,10.488c-2.599-4.758,12.009-38.532,12.807-41.015c1.666-5.181,0.37-7.957-4.257-6.291
		c-6.04,2.173-18.122,5.598-19.734,11.043c-1.975,6.661-8.882,29.111-18.009,34.54c-4.223,2.51-6.655-3.755-5.125-14.126
		c4.188-28.485,19.061-43.854,23.688-39.043c1.921,2.001,5.363,0.555,4.279-3.378c-2.422-8.793-9.791-13.258-19.593-11.525
		c-9.71,1.706-30.771,22.346-34.035,52.466c-8.631,7.499-29.056,24.119-41.477,24.993c-5.01,0.354-4.887-8.661-2.458-19.897
		c18.135-8.507,35.609-19.442,39.84-31.276c4.193-11.775-1.759-28.299-24.177-21.68c-20.494,6.066-32.762,23.597-38.9,51.404
		c-0.268,1.214-0.496,2.378-0.702,3.516c-3.578,1.445-6.958,2.7-10.034,3.701c8.818-20.337,0.696-42.726-31.408-39.843
		c13.141-22.587-4.624-53.319-45.343-29.321c-41.876,24.681-47.254,56.28-47.744,58.226c-0.524,2.098,0,4.198,3.149,3.149
		c2.517-0.84,12.168-6.573,15.478-10.228c1.158-1.279,2.319-3.518,2.886-5.002c1.837-4.834,6.418-24.082,28.325-36.178
		c24.459-13.507,32.525,12.261,17.833,28.326c-2.82,3.087-0.349,5.261,3.543,4.723c59.208-8.189,27.246,57.759-18.067,48.047
		c-4.979-1.065-6.07,3.237-1.076,4.936c30.891,10.502,54.604-0.911,66.75-17.108c3.778-1.219,8.873-2.931,14.683-5.065
		c-2.228,40.95,47.93,14.314,68.549-5.653c1.656,30.897,32.856,16.217,38.54,7.812c-2.727,8.896,4.825,14.054,15.54,12.337
		c8.823-1.414,17.238-7.398,24.056-14.564c1.796,7.804,6.332,13.768,15.478,14.374c17.594,1.17,39.997-15.762,54.526-28.846
		c-3.613,12.722-6.992,23.389-9.124,29.366c-1.239,3.47-2.174,8.056,2.164,6.256c11.876-4.903,23.145-15.91,25.07-21.539
		c1.563-4.556,5.972-18.941,10.125-35.716c7.369-4.567,15.064-7.75,20.979-6.088c9.218,2.606-0.51,25.542-11.688,50.054
		c-8.933,19.609,30.822,38.529,33.695,38.529c2.881,0,5.032-2.604,2.402-5.338C578.309,282.53,563.156,275.192,565.764,262.518z
		 M332.599,191.892c8.213-2.813-0.674,23.444-14.744,31.401C322.302,208.297,329.089,193.094,332.599,191.892z"/>
</g>
</svg>
